<?xml version="1.0" encoding="utf-8"?>
<!-- Generator: Adobe Illustrator 17.1.0, SVG Export Plug-In . SVG Version: 6.00 Build 0)  -->
<!DOCTYPE svg PUBLIC "-//W3C//DTD SVG 1.0//EN" "http://www.w3.org/TR/2001/REC-SVG-20010904/DTD/svg10.dtd">
<svg xmlns="http://www.w3.org/2000/svg" xmlns:xlink="http://www.w3.org/1999/xlink" version="1.0" id="Layer_1" x="0px" y="0px" width="50px" height="50px" viewBox="0 0 50 50" style="enable-background:new 0 0 50 50" xml:space="preserve" fill="#5988bc">
<rect style="fill:none" width="50" height="50" fill="#5988bc"/>
<path style="fill:none;stroke:#5988bc;stroke-width:2;stroke-linecap:round;stroke-linejoin:round;stroke-miterlimit:10" d="M34,14  h-3V5h3V14z" fill="#5988bc"/>
<path style="fill:none;stroke:#5988bc;stroke-width:2;stroke-linecap:round;stroke-linejoin:round;stroke-miterlimit:10" d="M49,47  c0,1.1-0.9,2-2,2H3c-1.1,0-2-0.9-2-2V3c0-1.1,0.9-2,2-2h35l11,11V47z" fill="#5988bc"/>
<path style="fill:none;stroke:#5988bc;stroke-width:1.95;stroke-linecap:round;stroke-linejoin:round;stroke-miterlimit:10" d="  M41,48.8v-20c0-1-0.8-1.8-1.8-1.8H10.8c-1,0-1.8,0.8-1.8,1.8v20" fill="#5988bc"/>
<path style="fill:none;stroke:#5988bc;stroke-width:2;stroke-linecap:round;stroke-linejoin:round;stroke-miterlimit:10" d="M38,17  c0,0.6-0.4,1-1,1H13c-0.6,0-1-0.4-1-1V2c0-0.6,0.4-1,1-1h24c0.6,0,1,0.4,1,1V17z" fill="#5988bc"/>
</svg>
